<?xml version="1.0" standalone="no"?>
<!DOCTYPE svg PUBLIC "-//W3C//DTD SVG 1.1//EN" "http://www.w3.org/Graphics/SVG/1.1/DTD/svg11.dtd">
<svg xmlns="http://www.w3.org/2000/svg" id="Layer_1" data-name="Layer 1" viewBox="0 0 500 500" width="500" height="500">
  <defs>
    <style>
      .cls-1 {
        fill: #fff;
      }

      .cls-1, .cls-2 {
        stroke-width: 0px;
      }

      .cls-2 {
        fill: #00dcff;
      }
    </style>
  </defs>
  <path class="cls-2" d="m405.19,238.76c-.54,0-.96.17-1.27.5s-.46.77-.46,1.32.14.97.43,1.28c.29.31.69.47,1.21.47s.93-.17,1.22-.5c.3-.33.45-.78.45-1.35s-.14-.97-.42-1.27c-.28-.3-.67-.45-1.16-.45Z"/>
  <polygon class="cls-2" points="403.64 245.3 403.72 253.48 403.61 259.53 406.59 259.53 406.5 253.2 406.62 245.02 403.64 245.3"/>
  <path class="cls-2" d="m409.31,246.8c-1.11,1.34-1.67,3.25-1.67,5.74,0,2.32.52,4.11,1.57,5.38,1.05,1.26,2.53,1.9,4.46,1.9,2.05,0,3.63-.67,4.75-2.01,1.11-1.34,1.67-3.25,1.67-5.74,0-2.32-.52-4.11-1.57-5.38-1.04-1.26-2.53-1.9-4.46-1.9-2.05,0-3.63.67-4.75,2.01Zm4.57.22c1.13,0,1.98.47,2.54,1.41s.84,2.39.84,4.36c0,1.63-.28,2.84-.84,3.64-.56.8-1.4,1.19-2.54,1.19s-2.01-.47-2.57-1.41-.84-2.39-.84-4.36c0-3.22,1.13-4.83,3.4-4.83Z"/>
  <path class="cls-1" d="m102.91,125.25h6.66c6.66,0,9.99,4.94,9.99,10.58v92.06h22.99v-85.37c0-27.15-12.33-32.79-33.65-32.79h-28.99v118.15h22.99v-102.64Z"/>
  <rect class="cls-1" x="159.22" y="109.74" width="22.99" height="118.15"/>
  <rect class="cls-1" x="198.86" y="109.74" width="22.99" height="118.15"/>
  <path class="cls-1" d="m261.5,137.59c0-3.88,1.33-10.58,7.99-10.58h8.66v100.88h22.99v-100.88h7.99c7,0,8.33,7.05,8.33,10.58v90.3h22.99v-86.43c0-20.45-8.33-31.38-30.32-31.38h-41.32c-20.65,0-30.32,9.87-30.32,31.73v86.07h22.99v-90.3Z"/>
  <g>
    <path class="cls-1" d="m119.57,282.85c0,5.29-3,11.63-9.66,11.63h-7v-19.43h-22.99v117.45h28.99c24.32,0,33.65-7.4,33.65-33.85v-38.43c0-9.17-2.33-21.15-13.33-24.68,11.22-2.71,13.18-11.95,13.32-20.49h-22.98v7.8Zm0,82.5c0,6-4,10.58-9.99,10.58h-6.66v-63.11h7c6.66,0,9.66,5.99,9.66,11.63v40.89Z"/>
    <path class="cls-1" d="m198.86,284.96c0,3.53-1.33,10.23-8.33,10.23-6,0-8.33-5.64-8.33-10.23v-9.91h-22.99v12.38c0,10.58,6.33,20.1,19.99,24.33v80.74h22.66v-81.09c14.32-2.11,19.99-12.69,19.99-23.62v-12.73h-22.99v9.91Z"/>
    <rect class="cls-1" x="278.16" y="275.05" width="22.99" height="118.15"/>
    <rect class="cls-1" x="317.47" y="275.05" width="22.99" height="118.15"/>
    <rect class="cls-1" x="238.51" y="275.05" width="22.99" height="118.15"/>
    <path class="cls-1" d="m396.76,282.85c0,5.29-3,11.63-9.66,11.63h-7v-19.43h-22.99v117.45h28.99c24.32,0,33.65-7.4,33.65-33.85v-38.43c0-9.17-2.33-21.15-13.33-24.68,11.22-2.71,13.18-11.95,13.32-20.49h-22.98v7.8Zm0,82.5c0,6-4,10.58-9.99,10.58h-6.66v-63.11h7c6.66,0,9.66,5.99,9.66,11.63v40.89Z"/>
  </g>
  <path class="cls-1" d="m386.1,109.74h-28.99v118.15h22.99v-102.64h6.66c6.66,0,9.99,4.94,9.99,10.58v92.06h22.99v-85.37c0-27.15-12.33-32.79-33.65-32.79Z"/>
  <path class="cls-2" d="m158.42,238.76c-.54,0-.96.17-1.27.5s-.46.77-.46,1.32.14.97.43,1.28c.29.31.69.47,1.21.47s.92-.17,1.22-.5c.3-.33.45-.78.45-1.35s-.14-.97-.42-1.27c-.28-.3-.67-.45-1.16-.45Z"/>
  <path class="cls-2" d="m367.71,238.76c-.54,0-.96.17-1.27.5s-.46.77-.46,1.32.14.97.43,1.28c.29.31.69.47,1.21.47s.93-.17,1.22-.5c.3-.33.45-.78.45-1.35s-.14-.97-.42-1.27c-.28-.3-.67-.45-1.16-.45Z"/>
  <path class="cls-2" d="m85.91,259.78c1.31,0,2.48-.27,3.51-.8,1.02-.53,1.82-1.25,2.39-2.16s.85-1.91.85-2.99c0-1-.24-1.87-.72-2.59-.48-.72-1.05-1.3-1.72-1.74-.67-.44-1.54-.93-2.61-1.47-1.23-.61-2.14-1.14-2.72-1.61-.58-.47-.87-1.07-.87-1.8s.29-1.41.87-1.98c.58-.56,1.35-.85,2.33-.85.62,0,1.26.14,1.94.41.68.27,1.33.65,1.97,1.13l.48-.19.51-2.95c-1.51-.67-3.02-1-4.54-1-1.27,0-2.41.26-3.4.77-.99.51-1.77,1.22-2.33,2.12-.56.9-.84,1.89-.84,2.98,0,1,.23,1.86.7,2.57.47.71,1.03,1.28,1.69,1.71s1.51.9,2.57,1.43c1.23.61,2.15,1.15,2.75,1.65.6.49.9,1.13.9,1.93s-.31,1.48-.93,2.05c-.62.57-1.44.86-2.48.86-.76,0-1.58-.18-2.46-.55s-1.7-.91-2.43-1.65l-.39.19v.07s-.39,3.13-.39,3.13c.12.06.25.11.38.17.73.35,1.48.64,2.28.83.94.23,1.84.35,2.72.35Z"/>
  <path class="cls-2" d="m105.1,257.21c-.3,0-.51-.08-.63-.23-.12-.16-.18-.42-.18-.8l.21-11.16-2.89.28v10.22c-1.11,1.05-2.2,1.57-3.25,1.57-.7,0-1.22-.22-1.57-.66-.35-.44-.51-1.04-.49-1.82l.15-9.59-3.01.28.12,6.27-.06,3.92c-.02,1.36.37,2.4,1.16,3.13.8.73,1.94,1.1,3.43,1.1,1.21-.35,2.41-1.09,3.58-2.19h.21c.18.69.44,1.21.79,1.55.35.35.82.57,1.42.67.64-.06,1.28-.29,1.94-.69l.27-1.76-.27-.22c-.38.08-.69.12-.93.12Z"/>
  <path class="cls-2" d="m112.05,257.27c-1.13,0-2.01-.44-2.63-1.33-.62-.89-.92-2.14-.92-3.75,0-1.51.3-2.68.9-3.51.6-.84,1.42-1.25,2.48-1.25.9,0,1.87.32,2.92.97l.3-.12.51-2.66c-.5-.25-1.07-.45-1.73-.6s-1.3-.22-1.94-.22c-1.97,0-3.51.68-4.63,2.04-1.11,1.36-1.67,3.23-1.67,5.61s.52,4.1,1.57,5.41c1.04,1.31,2.5,1.96,4.37,1.96,1.21,0,2.43-.24,3.64-.72l.3-2.57-.27-.19c-1.13.63-2.2.94-3.19.94Z"/>
  <path class="cls-2" d="m121.21,257.27c-1.13,0-2.01-.44-2.63-1.33-.62-.89-.92-2.14-.92-3.75,0-1.51.3-2.68.9-3.51.6-.84,1.42-1.25,2.48-1.25.9,0,1.87.32,2.92.97l.3-.12.51-2.66c-.5-.25-1.07-.45-1.73-.6s-1.3-.22-1.94-.22c-1.97,0-3.51.68-4.63,2.04-1.11,1.36-1.67,3.23-1.67,5.61s.52,4.1,1.57,5.41c1.04,1.31,2.5,1.96,4.37,1.96,1.21,0,2.43-.24,3.64-.72l.3-2.57-.27-.19c-1.13.63-2.2.94-3.19.94Z"/>
  <path class="cls-2" d="m130.88,257.33c-1.31,0-2.33-.41-3.04-1.24-.72-.82-1.08-2.03-1.1-3.62l8.39-.03.33-.38c.1-.67.15-1.24.15-1.72,0-1.76-.45-3.11-1.36-4.07-.91-.96-2.19-1.44-3.86-1.44-1.97,0-3.53.68-4.69,2.04-1.15,1.36-1.73,3.2-1.73,5.52s.58,4.11,1.75,5.44c1.16,1.33,2.77,1.99,4.82,1.99,1.37,0,2.79-.33,4.24-1l.45-2.57-.3-.19c-1.31.86-2.66,1.29-4.03,1.29Zm-2.81-9.42c.6-.62,1.35-.93,2.27-.93.82,0,1.44.25,1.87.75.43.5.64,1.24.64,2.23l-.06.44-5.91.12c.2-1.13.6-2,1.19-2.62Z"/>
  <path class="cls-2" d="m144.02,253.32c-.35-.52-.77-.94-1.25-1.25-.49-.31-1.12-.65-1.9-1-.86-.38-1.49-.72-1.9-1.03-.41-.31-.61-.73-.61-1.25,0-.48.17-.89.52-1.22.35-.33.82-.5,1.42-.5.99,0,2.01.37,3.04,1.1l.39-.09.42-2.51c-1.13-.48-2.3-.72-3.49-.72-1.55,0-2.78.41-3.67,1.22-.9.82-1.34,1.86-1.34,3.14,0,.79.17,1.46.52,2.01.35.54.77.97,1.27,1.29.5.31,1.13.65,1.91,1,.86.42,1.48.78,1.88,1.08.4.3.6.72.6,1.24s-.19.94-.58,1.3c-.39.37-.9.55-1.54.55-.58,0-1.21-.15-1.91-.45-.7-.3-1.33-.72-1.91-1.24l-.33.22-.36,2.66c1.41.65,2.81.97,4.18.97,1.09,0,2.03-.21,2.81-.63.78-.42,1.36-.98,1.76-1.68.4-.7.6-1.45.6-2.24s-.17-1.42-.52-1.94Z"/>
  <path class="cls-2" d="m151.66,252.07c-.49-.31-1.12-.65-1.9-1-.86-.38-1.49-.72-1.9-1.03-.41-.31-.61-.73-.61-1.25,0-.48.17-.89.52-1.22.35-.33.82-.5,1.42-.5.99,0,2.01.37,3.04,1.1l.39-.09.42-2.51c-1.13-.48-2.3-.72-3.49-.72-1.55,0-2.78.41-3.67,1.22-.9.82-1.34,1.86-1.34,3.14,0,.79.17,1.46.52,2.01.35.54.77.97,1.27,1.29.5.31,1.13.65,1.91,1,.86.42,1.48.78,1.88,1.08.4.3.6.72.6,1.24s-.19.94-.58,1.3c-.39.37-.9.55-1.54.55-.58,0-1.21-.15-1.91-.45-.7-.3-1.33-.72-1.91-1.24l-.33.22-.36,2.66c1.41.65,2.81.97,4.18.97,1.09,0,2.03-.21,2.81-.63.78-.42,1.36-.98,1.76-1.68.4-.7.6-1.45.6-2.24s-.17-1.42-.52-1.94c-.35-.52-.77-.94-1.25-1.25Z"/>
  <polygon class="cls-2" points="156.87 245.3 156.96 253.48 156.84 259.53 159.83 259.53 159.74 253.2 159.86 245.02 156.87 245.3"/>
  <path class="cls-2" d="m168.14,252.07c-.49-.31-1.12-.65-1.9-1-.86-.38-1.49-.72-1.9-1.03-.41-.31-.61-.73-.61-1.25,0-.48.17-.89.52-1.22.35-.33.82-.5,1.42-.5.99,0,2.01.37,3.04,1.1l.39-.09.42-2.51c-1.13-.48-2.3-.72-3.49-.72-1.55,0-2.78.41-3.67,1.22-.9.82-1.34,1.86-1.34,3.14,0,.79.17,1.46.52,2.01.35.54.77.97,1.27,1.29.5.31,1.13.65,1.91,1,.86.42,1.48.78,1.88,1.08.4.3.6.72.6,1.24s-.19.94-.58,1.3c-.39.37-.9.55-1.54.55-.58,0-1.21-.15-1.91-.45-.7-.3-1.33-.72-1.91-1.24l-.33.22-.36,2.66c1.41.65,2.81.97,4.18.97,1.09,0,2.03-.21,2.81-.63.78-.42,1.36-.98,1.76-1.68.4-.7.6-1.45.6-2.24s-.17-1.42-.52-1.94c-.35-.52-.77-.94-1.25-1.25Z"/>
  <path class="cls-2" d="m182.33,257.21c-.32,0-.54-.08-.67-.23-.13-.16-.19-.43-.19-.83,0-.36.06-1.58.18-3.67.12-2.13.18-3.39.18-3.76,0-1.23-.4-2.19-1.19-2.88-.8-.69-1.88-1.03-3.25-1.03-1.83,0-3.62.63-5.37,1.88l.39,2.23.24.16c.82-.69,1.56-1.2,2.24-1.52s1.35-.49,2.03-.49,1.23.2,1.6.6c.37.4.55.98.55,1.76l-.03,1.69-4.72,1.1c-1.93.46-2.89,1.62-2.89,3.48,0,1.25.39,2.25,1.18,2.98.79.73,1.87,1.11,3.24,1.13,1.05-.44,2.09-1.22,3.1-2.35h.21c.08.67.31,1.21.69,1.61.38.41.88.64,1.49.7.68-.08,1.3-.31,1.88-.69l.3-1.76-.27-.22c-.4.08-.7.12-.9.12Zm-3.4-1.85c-1.05,1.27-2.05,1.91-2.98,1.91-.56,0-1-.18-1.33-.53-.33-.35-.49-.85-.49-1.47,0-.42.08-.73.24-.92.16-.2.42-.34.78-.42l3.88-.97-.09,2.41Z"/>
  <path class="cls-2" d="m184.81,239.4l-.18,2.29.27.25,3.49-.03.12,11.28v2.6c0,1.11-.27,2.01-.82,2.71-.55.7-1.49,1.42-2.82,2.15v.35l1.07,1.79c1.99-.92,3.39-1.91,4.19-2.96.81-1.05,1.21-2.4,1.21-4.03l-.06-2.92.18-13.48h-6.65Z"/>
  <path class="cls-2" d="m203.09,246.69c-1.04-1.26-2.53-1.9-4.46-1.9-2.05,0-3.63.67-4.74,2.01-1.11,1.34-1.67,3.25-1.67,5.74,0,2.32.52,4.11,1.57,5.38,1.04,1.26,2.53,1.9,4.46,1.9,2.05,0,3.63-.67,4.75-2.01,1.11-1.34,1.67-3.25,1.67-5.74,0-2.32-.52-4.11-1.57-5.38Zm-2.1,9.73c-.56.8-1.4,1.19-2.54,1.19s-2.01-.47-2.57-1.41-.84-2.39-.84-4.36c0-3.22,1.13-4.83,3.4-4.83,1.13,0,1.98.47,2.54,1.41.56.94.84,2.39.84,4.36,0,1.63-.28,2.84-.84,3.64Z"/>
  <path class="cls-2" d="m217.07,257.21c-.3,0-.51-.08-.63-.23-.12-.16-.18-.42-.18-.8l.21-11.16-2.89.28v10.22c-1.11,1.05-2.2,1.57-3.25,1.57-.7,0-1.22-.22-1.57-.66-.35-.44-.51-1.04-.49-1.82l.15-9.59-3.01.28.12,6.27-.06,3.92c-.02,1.36.37,2.4,1.16,3.13.8.73,1.94,1.1,3.43,1.1,1.21-.35,2.41-1.09,3.58-2.19h.21c.18.69.44,1.21.79,1.55.35.35.82.57,1.42.67.64-.06,1.28-.29,1.94-.69l.27-1.76-.27-.22c-.38.08-.69.12-.93.12Z"/>
  <path class="cls-2" d="m223.31,245.72c-.66.45-1.25,1.18-1.79,2.18h-.21l.03-2.88-2.89.28.18,8.18-.21,6.05h3.04l-.18-6.33.03-2.07c.5-1.07,1.01-1.84,1.55-2.32.54-.48,1.11-.72,1.73-.72.42,0,.79.05,1.1.16l.33-.09v-3.04c-.28-.04-.53-.06-.75-.06-.66,0-1.31.22-1.97.67Z"/>
  <path class="cls-2" d="m238.25,249.12c.02-1.36-.36-2.4-1.15-3.13-.79-.73-1.94-1.1-3.48-1.1-1.27.4-2.5,1.14-3.67,2.23h-.21l.03-2.1-2.89.28.15,8.18-.18,6.05h3.04l-.18-6.33.03-3.82c1.23-1.25,2.43-1.88,3.58-1.88.7,0,1.23.23,1.6.67.37.45.54,1.07.52,1.86l-.21,9.5h3.07l-.15-6.33.09-4.08Z"/>
  <path class="cls-2" d="m250.52,252.07c.1-.67.15-1.24.15-1.72,0-1.76-.45-3.11-1.36-4.07-.91-.96-2.19-1.44-3.86-1.44-1.97,0-3.53.68-4.69,2.04-1.15,1.36-1.73,3.2-1.73,5.52s.58,4.11,1.75,5.44c1.16,1.33,2.77,1.99,4.82,1.99,1.37,0,2.79-.33,4.24-1l.45-2.57-.3-.19c-1.31.86-2.66,1.29-4.03,1.29s-2.33-.41-3.04-1.24c-.72-.82-1.08-2.03-1.1-3.62l8.39-.03.33-.38Zm-2.66-1.66l-5.91.12c.2-1.13.6-2,1.19-2.62.6-.62,1.35-.93,2.27-.93.82,0,1.44.25,1.87.75.43.5.64,1.24.64,2.23l-.06.44Z"/>
  <path class="cls-2" d="m259.62,245.08l-.51,2.23-2.98,8.9h-.21l-2.98-9.18-.45-2.04-2.86.16,5.01,14.39c-.68,1.19-1.42,2.05-2.24,2.57-.82.52-1.93.92-3.34,1.19l-.09.34c.36.75.78,1.38,1.25,1.88h.27c1.35-.36,2.45-.78,3.3-1.28.85-.5,1.56-1.18,2.13-2.02.58-.85,1.1-1.98,1.58-3.4l4.75-13.73h-2.63Z"/>
  <path class="cls-2" d="m262.1,256.21c-.72.19-1.44.53-2.18,1.03v.28c.62.46.92,1.01.92,1.66,0,.98-.55,1.94-1.64,2.88l.03.25.98.94c2.11-1.59,3.16-3.16,3.16-4.7,0-.92-.43-1.7-1.28-2.35Z"/>
  <polygon class="cls-2" points="280.15 239.56 280.21 254.48 279.97 254.48 270.93 239.4 267.67 239.4 267.79 253.57 267.64 259.53 270.45 259.53 270.36 252.79 270.39 244.45 270.6 244.45 279.61 259.53 282.92 259.53 282.84 253.51 283.01 239.34 280.15 239.56"/>
  <path class="cls-2" d="m290.18,244.8c-2.05,0-3.63.67-4.75,2.01-1.11,1.34-1.67,3.25-1.67,5.74,0,2.32.52,4.11,1.57,5.38,1.05,1.26,2.53,1.9,4.46,1.9,2.05,0,3.63-.67,4.75-2.01,1.11-1.34,1.67-3.25,1.67-5.74,0-2.32-.52-4.11-1.57-5.38-1.04-1.26-2.53-1.9-4.46-1.9Zm2.36,11.63c-.56.8-1.4,1.19-2.54,1.19s-2.01-.47-2.57-1.41-.84-2.39-.84-4.36c0-3.22,1.13-4.83,3.4-4.83,1.13,0,1.98.47,2.54,1.41s.84,2.39.84,4.36c0,1.63-.28,2.84-.84,3.64Z"/>
  <path class="cls-2" d="m304.26,247.18l.15-1.82-.12-.22h-3.82l.06-3.1-.27-.25-2.69,1.07v2.29h-1.82l-.15,1.85.12.19h1.88l.03,6.11-.12,2.26c0,1.25.28,2.21.84,2.87.56.66,1.45,1.09,2.69,1.3.93-.08,1.95-.4,3.04-.94l.3-2.01-.3-.22c-.74.38-1.43.56-2.09.56s-1.09-.15-1.36-.45-.39-.84-.37-1.61l.15-7.87h3.85Z"/>
  <path class="cls-2" d="m348.1,256.05c-1.31.86-2.66,1.29-4.03,1.29s-2.33-.41-3.04-1.24c-.72-.82-1.08-2.03-1.1-3.62l8.39-.03.33-.38c.1-.67.15-1.24.15-1.72,0-1.76-.45-3.11-1.36-4.07-.91-.96-2.19-1.44-3.86-1.44-1.97,0-3.53.68-4.69,2.04-.74.87-1.24,1.94-1.5,3.2.03-.43.04-.87.04-1.32,0-3.05-.74-5.39-2.21-7.02s-3.58-2.44-6.33-2.44l-7.25.12h-.03l.21,14.07-.21,6.05h.03c1.03.06,2.15.11,3.34.14,1.19.03,2.22.05,3.07.05,3.02,0,5.34-.94,6.95-2.84,1.1-1.29,1.82-2.98,2.17-5.04,0,.18-.02.36-.02.54,0,2.3.58,4.11,1.75,5.44,1.16,1.33,2.77,1.99,4.82,1.99,1.37,0,2.78-.33,4.24-1l.45-2.57-.3-.19Zm-6.83-8.13c.6-.62,1.35-.93,2.27-.93.82,0,1.44.25,1.87.75.43.5.64,1.24.64,2.23l-.06.44-5.91.12c.2-1.13.6-2,1.19-2.62Zm-8.49,7.32c-.96,1.27-2.36,1.91-4.19,1.91-.46,0-1.04-.02-1.76-.06-.72-.04-1.43-.09-2.15-.16l-.09-3.73.15-11.16c1.51-.08,2.81-.13,3.91-.13,1.87,0,3.27.61,4.19,1.83.92,1.22,1.39,3.13,1.39,5.72s-.48,4.49-1.45,5.77Z"/>
  <path class="cls-2" d="m365.74,247.18l.15-1.82-.12-.22h-3.82l.06-3.1-.27-.25-2.69,1.07v2.29h-1.82l-.03.35c-1.09-.44-2.2-.67-3.34-.67-1.55,0-2.78.41-3.67,1.22-.9.82-1.34,1.86-1.34,3.14,0,.79.17,1.46.52,2.01.35.54.77.97,1.27,1.29.5.31,1.13.65,1.91,1,.86.42,1.48.78,1.88,1.08.4.3.6.72.6,1.24s-.19.94-.58,1.3c-.39.37-.9.55-1.54.55-.58,0-1.21-.15-1.91-.45s-1.33-.72-1.91-1.24l-.33.22-.36,2.66c1.41.65,2.81.97,4.18.97,1.09,0,2.03-.21,2.81-.63.78-.42,1.36-.98,1.76-1.68.4-.7.6-1.45.6-2.24s-.17-1.42-.52-1.94c-.35-.52-.77-.94-1.25-1.25-.49-.31-1.12-.65-1.9-1-.85-.38-1.49-.72-1.89-1.03-.41-.31-.61-.73-.61-1.25,0-.48.17-.89.52-1.22s.82-.5,1.42-.5c.99,0,2.01.37,3.04,1.1l.39-.09.17-1.03.1.15h1.88l.03,6.11-.12,2.26c0,1.25.28,2.21.84,2.87.56.66,1.45,1.09,2.69,1.3.93-.08,1.95-.4,3.04-.94l.3-2.01-.3-.22c-.74.38-1.43.56-2.09.56s-1.09-.15-1.36-.45-.39-.84-.37-1.61l.15-7.87h3.85Z"/>
  <polygon class="cls-2" points="366.15 245.3 366.24 253.48 366.12 259.53 369.11 259.53 369.02 253.2 369.14 245.02 366.15 245.3"/>
  <path class="cls-2" d="m382.6,249.12c.02-1.36-.36-2.4-1.15-3.13s-1.95-1.1-3.48-1.1c-1.27.4-2.5,1.14-3.67,2.23h-.21l.03-2.1-2.89.28.15,8.18-.18,6.05h3.04l-.18-6.33.03-3.82c1.23-1.25,2.43-1.88,3.58-1.88.7,0,1.23.23,1.6.67.37.45.54,1.07.52,1.86l-.21,9.5h3.07l-.15-6.33.09-4.08Z"/>
  <path class="cls-2" d="m394.3,257.21c-.32,0-.54-.08-.67-.23-.13-.16-.19-.43-.19-.83,0-.36.06-1.58.18-3.67.12-2.13.18-3.39.18-3.76,0-1.23-.4-2.19-1.19-2.88s-1.88-1.03-3.25-1.03c-1.83,0-3.62.63-5.37,1.88l.39,2.23.24.16c.82-.69,1.56-1.2,2.24-1.52.68-.32,1.35-.49,2.03-.49s1.23.2,1.6.6.55.98.55,1.76l-.03,1.69-4.71,1.1c-1.93.46-2.89,1.62-2.89,3.48,0,1.25.39,2.25,1.18,2.98s1.87,1.11,3.24,1.13c1.05-.44,2.09-1.22,3.1-2.35h.21c.08.67.31,1.21.69,1.61.38.41.88.64,1.49.7.68-.08,1.3-.31,1.88-.69l.3-1.76-.27-.22c-.4.08-.7.12-.9.12Zm-3.4-1.85c-1.05,1.27-2.05,1.91-2.98,1.91-.56,0-1-.18-1.33-.53-.33-.35-.49-.85-.49-1.47,0-.42.08-.73.24-.92.16-.2.42-.34.78-.42l3.88-.97-.09,2.41Z"/>
  <path class="cls-2" d="m403.22,247.18l.15-1.82-.12-.22h-3.82l.06-3.1-.27-.25-2.69,1.07v2.29h-1.82l-.15,1.85.12.19h1.88l.03,6.11-.12,2.26c0,1.25.28,2.21.84,2.87.56.66,1.45,1.09,2.69,1.3.93-.08,1.95-.4,3.04-.94l.3-2.01-.3-.22c-.74.38-1.43.56-2.09.56s-1.09-.15-1.36-.45-.39-.84-.37-1.61l.15-7.87h3.85Z"/>
  <path class="cls-2" d="m317.81,257.08c-.4.08-.7.12-.9.12-.32,0-.54-.08-.67-.23-.13-.16-.19-.43-.19-.83,0-.36.06-1.58.18-3.67.12-2.13.18-3.39.18-3.76,0-1.23-.4-2.19-1.19-2.88s-1.88-1.03-3.25-1.03c-1.83,0-3.62.63-5.37,1.88l.39,2.23.24.16c.82-.69,1.56-1.2,2.24-1.52.68-.32,1.35-.49,2.03-.49s1.23.2,1.6.6.55.98.55,1.76l-.03,1.69-4.71,1.1c-1.93.46-2.89,1.62-2.89,3.48,0,1.25.39,2.25,1.18,2.98s1.87,1.11,3.24,1.13c1.05-.44,2.09-1.22,3.1-2.35h.21c.08.67.31,1.21.69,1.61.38.41.88.64,1.49.7.68-.08,1.3-.31,1.88-.69l.3-1.76-.27-.22Zm-4.3-1.72c-1.05,1.27-2.05,1.91-2.98,1.91-.56,0-1-.18-1.33-.53-.33-.35-.49-.85-.49-1.47,0-.42.08-.73.24-.92.16-.2.42-.34.78-.42l3.88-.97-.09,2.41Z"/>
</svg>